<svg width="680" height="680" viewBox="0 0 680 680" xmlns="http://www.w3.org/2000/svg" role="img"><title>Active phishing campaign illustration</title><desc>A caricature of an employee at a laptop looking at a fake login page, with a large hook dangling toward the screen.</desc>

<rect x="120" y="440" width="440" height="20" rx="4" fill="#94a3b8"/>

<path d="M420 120 Q460 120 460 160 L460 260" fill="none" stroke="#dc2626" stroke-width="6" stroke-linecap="round"/>
<path d="M460 260 Q460 300 430 300 Q400 300 400 270 Q400 250 420 250" fill="none" stroke="#dc2626" stroke-width="6" stroke-linecap="round"/>

<rect x="230" y="290" width="220" height="150" rx="8" fill="#f1f5f9" stroke="#94a3b8" stroke-width="4"/>
<rect x="248" y="306" width="184" height="30" rx="4" fill="#dc2626"/>
<text x="340" y="327" text-anchor="middle" font-family="sans-serif" font-size="14" font-weight="500" fill="#ffffff">IT portal login</text>
<rect x="260" y="352" width="160" height="18" rx="4" fill="#ffffff" stroke="#94a3b8" stroke-width="2"/>
<rect x="260" y="378" width="160" height="18" rx="4" fill="#ffffff" stroke="#94a3b8" stroke-width="2"/>
<rect x="290" y="404" width="100" height="24" rx="4" fill="#dc2626"/>

<g transform="translate(180,300)">
<ellipse cx="0" cy="230" rx="90" ry="40" fill="#64748b"/>
<rect x="-55" y="120" width="110" height="120" rx="30" fill="#64748b"/>
<circle cx="0" cy="80" r="58" fill="#64748b"/>
<ellipse cx="-24" cy="72" rx="15" ry="18" fill="#ffffff"/>
<ellipse cx="24" cy="72" rx="15" ry="18" fill="#ffffff"/>
<circle cx="-16" cy="70" r="7" fill="#1e293b"/>
<circle cx="32" cy="70" r="7" fill="#1e293b"/>
<path d="M-20 108 Q0 118 20 108" fill="none" stroke="#ffffff" stroke-width="4" stroke-linecap="round"/>
</g>

</svg>
